<?xml version="1.0" encoding="UTF-8" standalone="no"?>
<!-- Created with Inkscape (http://www.inkscape.org/) -->

<svg
   xmlns:dc="http://purl.org/dc/elements/1.1/"
   xmlns:cc="http://creativecommons.org/ns#"
   xmlns:rdf="http://www.w3.org/1999/02/22-rdf-syntax-ns#"
   xmlns:svg="http://www.w3.org/2000/svg"
   xmlns="http://www.w3.org/2000/svg"
   xmlns:sodipodi="http://sodipodi.sourceforge.net/DTD/sodipodi-0.dtd"
   xmlns:inkscape="http://www.inkscape.org/namespaces/inkscape"
   width="62.627995"
   height="48.302235"
   id="svg4323"
   version="1.1"
   inkscape:version="0.48.2 r9819"
   sodipodi:docname="wrms-worm.svg"
   inkscape:export-filename="/home/matth/Desktop/wrms-worm.png"
   inkscape:export-xdpi="431.12"
   inkscape:export-ydpi="431.12">
  <defs
     id="defs4325">
    <filter
       color-interpolation-filters="sRGB"
       inkscape:collect="always"
       id="filter4238"
       x="-0.23473462"
       width="1.4694692"
       y="-0.640185"
       height="2.28037">
      <feGaussianBlur
         inkscape:collect="always"
         stdDeviation="1.037391"
         id="feGaussianBlur4240" />
    </filter>
    <filter
       color-interpolation-filters="sRGB"
       inkscape:collect="always"
       id="filter4242"
       x="-0.14255343"
       width="1.2851069"
       y="-0.38878191"
       height="1.7775638">
      <feGaussianBlur
         inkscape:collect="always"
         stdDeviation="0.63000362"
         id="feGaussianBlur4244" />
    </filter>
  </defs>
  <sodipodi:namedview
     id="base"
     pagecolor="#ffffff"
     bordercolor="#666666"
     borderopacity="1.0"
     inkscape:pageopacity="0.0"
     inkscape:pageshadow="2"
     inkscape:zoom="1.979899"
     inkscape:cx="8.8802474"
     inkscape:cy="-0.24131303"
     inkscape:document-units="px"
     inkscape:current-layer="layer1"
     showgrid="false"
     fit-margin-top="0"
     fit-margin-left="0"
     fit-margin-right="0"
     fit-margin-bottom="0"
     inkscape:window-width="513"
     inkscape:window-height="406"
     inkscape:window-x="3"
     inkscape:window-y="140"
     inkscape:window-maximized="0" />
  <metadata
     id="metadata4328">
    <rdf:RDF>
      <cc:Work
         rdf:about="">
        <dc:format>image/svg+xml</dc:format>
        <dc:type
           rdf:resource="http://purl.org/dc/dcmitype/StillImage" />
        <dc:title></dc:title>
      </cc:Work>
    </rdf:RDF>
  </metadata>
  <g
     inkscape:label="Layer 1"
     inkscape:groupmode="layer"
     id="layer1"
     transform="translate(-151.53186,-391.06821)">
    <g
       transform="translate(150.94638,416.30301)"
       id="g4256">
      <path
         transform="matrix(1.5753917,0,0,1,-15.822149,-7.9549513)"
         sodipodi:open="true"
         sodipodi:end="6.2869853"
         sodipodi:start="0.011008438"
         d="m 23.51098,26.161756 c -0.03224,1.073877 -2.432605,1.934842 -5.36136,1.92302 -2.928754,-0.01182 -5.276842,-0.891955 -5.244599,-1.965832 0.03224,-1.073876 2.432604,-1.934842 5.361359,-1.923019 2.913838,0.01176 5.255956,0.88335 5.244883,1.951815"
         sodipodi:ry="1.9445436"
         sodipodi:rx="5.3033009"
         sodipodi:cy="26.14035"
         sodipodi:cx="18.208"
         id="path4120"
         style="opacity:0.3374486;fill:#666666;fill-opacity:1;stroke:none;filter:url(#filter4238)"
         sodipodi:type="arc" />
      <path
         transform="matrix(1.5985421,0,0,1,19.87292,-6.5294759)"
         sodipodi:open="true"
         sodipodi:end="6.2869853"
         sodipodi:start="0.011008438"
         d="m 23.51098,26.161756 c -0.03224,1.073877 -2.432605,1.934842 -5.36136,1.92302 -2.928754,-0.01182 -5.276842,-0.891955 -5.244599,-1.965832 0.03224,-1.073876 2.432604,-1.934842 5.361359,-1.923019 2.913838,0.01176 5.255956,0.88335 5.244883,1.951815"
         sodipodi:ry="1.9445436"
         sodipodi:rx="5.3033009"
         sodipodi:cy="26.14035"
         sodipodi:cx="18.208"
         id="path4120-7"
         style="opacity:0.22633745;fill:#666666;fill-opacity:1;stroke:none;filter:url(#filter4242)"
         sodipodi:type="arc" />
      <path
         sodipodi:nodetypes="ssssssssssssssssssssss"
         inkscape:connector-curvature="0"
         id="path2987"
         d="m 44.405648,18.437167 c -1.200866,-0.668011 -3.848565,-3.352065 -5.883775,-5.964565 -3.85126,-4.9436746 -7.075197,-6.0907766 -9.364739,-3.3320466 -0.647239,0.779875 -3.996212,3.2548746 -7.442163,5.4999996 -9.722595,6.334521 -16.62593,5.280272 -16.62593,-2.539041 0,-4.6222466 1.794342,-7.8106246 7.998254,-14.2121493 5.588335,-5.766341 5.939254,-7.220047 1.144336,-4.740498 -3.617452,1.870657 -8.270754,2.045572 -9.94259,0.373736 -1.750039,-1.750039 -1.482873,-4.1642597 1.034156,-9.3450637 1.914963,-3.94157 2.585177,-4.531466 4.691077,-4.128897 1.351306,0.258318 3.387791,-0.14026 4.525521,-0.885729 2.341387,-1.534136 3.201116,-1.134448 6.33372,2.944548 4.005785,5.215974 2.606113,13.1432207 -3.286778,18.6151417 -3.710627,3.4455507 -6.956358,9.9413373 -5.630064,11.2676313 1.180302,1.180302 2.990875,0.13702 13.782343,-7.9416196 6.107232,-4.5719577 7.501886,-5.2187727 9.562995,-4.4351407 1.587558,0.603589 2.807619,2.2330417 3.566526,4.7632787 0.634428,2.115217 2.457125,5.406317 4.050438,7.3135546 2.655594,3.178817 3.357689,3.470396 8.427671,3.5 6.324126,0.03693 10.715274,-2.590531 8.596363,-5.143663 -1.671146,-2.0136076 -0.08426,-2.9829016 1.799492,-1.0991536 5.662477,5.6624766 -9.397747,13.9059936 -17.336853,9.4896766 z"
         style="fill:#e8c1a4;fill-opacity:1;stroke:#dab397;stroke-width:0.5;stroke-miterlimit:4;stroke-opacity:1;stroke-dasharray:none" />
      <path
         inkscape:transform-center-y="0.375"
         inkscape:transform-center-x="-0.6875"
         sodipodi:nodetypes="sssss"
         inkscape:connector-curvature="0"
         id="path2987-7"
         d="m 7.4251609,-23.700514 c 0.3150294,-0.45084 0.9634195,-0.546745 1.4408664,-0.213124 0.4774467,0.333622 0.00736,0.534905 -0.5863029,0.791046 -0.5936644,0.25614 -0.8670536,0.633296 -1.0658668,0.494373 -0.198813,-0.138923 -0.1037262,-0.621455 0.2113033,-1.072295 z"
         style="fill:#666666;fill-opacity:1" />
      <path
         transform="matrix(1.0326302,0.17030999,-0.17030999,1.0326302,12.090883,10.441034)"
         sodipodi:open="true"
         sodipodi:end="6.2869853"
         sodipodi:start="0.011008438"
         d="m -3.8649207,-25.911468 c -0.019527,2.422719 -1.4732871,4.365099 -3.2470634,4.338428 -1.7737763,-0.02667 -3.1958759,-2.012295 -3.1763489,-4.435014 0.01953,-2.422718 1.4732872,-4.365099 3.2470635,-4.338427 1.7647419,0.02653 3.1832266,1.992883 3.1765202,4.403391"
         sodipodi:ry="4.3869863"
         sodipodi:rx="3.2119007"
         sodipodi:cy="-25.959761"
         sodipodi:cx="-7.0766268"
         id="path3786-5-6"
         style="opacity:0.64609052;fill:#4d4d4d;fill-opacity:1;stroke:#e8c1a4;stroke-width:0.01;stroke-miterlimit:4;stroke-opacity:1;stroke-dasharray:none"
         sodipodi:type="arc" />
      <path
         transform="matrix(0.98667064,0.16272996,-0.16272996,0.98667064,11.95638,9.253419)"
         sodipodi:open="true"
         sodipodi:end="6.2869853"
         sodipodi:start="0.011008438"
         d="m -3.8649207,-25.911468 c -0.019527,2.422719 -1.4732871,4.365099 -3.2470634,4.338428 -1.7737763,-0.02667 -3.1958759,-2.012295 -3.1763489,-4.435014 0.01953,-2.422718 1.4732872,-4.365099 3.2470635,-4.338427 1.7647419,0.02653 3.1832266,1.992883 3.1765202,4.403391"
         sodipodi:ry="4.3869863"
         sodipodi:rx="3.2119007"
         sodipodi:cy="-25.959761"
         sodipodi:cx="-7.0766268"
         id="path3786-5"
         style="fill:#ffffff;fill-opacity:1;stroke:#e8c1a4;stroke-width:0.01;stroke-miterlimit:4;stroke-opacity:1;stroke-dasharray:none"
         sodipodi:type="arc" />
      <path
         transform="matrix(0.67403158,0.20918637,-0.20559439,0.75487859,9.535324,3.531691)"
         sodipodi:open="true"
         sodipodi:end="6.2869853"
         sodipodi:start="0.011008438"
         d="m -3.8649207,-25.911468 c -0.019527,2.422719 -1.4732871,4.365099 -3.2470634,4.338428 -1.7737763,-0.02667 -3.1958759,-2.012295 -3.1763489,-4.435014 0.01953,-2.422718 1.4732872,-4.365099 3.2470635,-4.338427 1.7647419,0.02653 3.1832266,1.992883 3.1765202,4.403391"
         sodipodi:ry="4.3869863"
         sodipodi:rx="3.2119007"
         sodipodi:cy="-25.959761"
         sodipodi:cx="-7.0766268"
         id="path3786-5-9"
         style="fill:#9dc7cc;fill-opacity:1;stroke:#e8c1a4;stroke-width:0.01;stroke-miterlimit:4;stroke-opacity:1;stroke-dasharray:none"
         sodipodi:type="arc" />
      <path
         transform="matrix(0.49624176,0.08184434,-0.08184434,0.49624176,11.604553,-3.39757)"
         sodipodi:open="true"
         sodipodi:end="6.2869853"
         sodipodi:start="0.011008438"
         d="m -3.8649207,-25.911468 c -0.019527,2.422719 -1.4732871,4.365099 -3.2470634,4.338428 -1.7737763,-0.02667 -3.1958759,-2.012295 -3.1763489,-4.435014 0.01953,-2.422718 1.4732872,-4.365099 3.2470635,-4.338427 1.7647419,0.02653 3.1832266,1.992883 3.1765202,4.403391"
         sodipodi:ry="4.3869863"
         sodipodi:rx="3.2119007"
         sodipodi:cy="-25.959761"
         sodipodi:cx="-7.0766268"
         id="path3786-5-9-6"
         style="fill:#000000;fill-opacity:1;stroke:#e8c1a4;stroke-width:0.01;stroke-miterlimit:4;stroke-opacity:1;stroke-dasharray:none"
         sodipodi:type="arc" />
      <path
         transform="matrix(0.22412133,0.10086185,-0.10086185,0.22412133,8.740657,-11.265775)"
         sodipodi:open="true"
         sodipodi:end="6.2869853"
         sodipodi:start="0.011008438"
         d="m -3.8649207,-25.911468 c -0.019527,2.422719 -1.4732871,4.365099 -3.2470634,4.338428 -1.7737763,-0.02667 -3.1958759,-2.012295 -3.1763489,-4.435014 0.01953,-2.422718 1.4732872,-4.365099 3.2470635,-4.338427 1.7647419,0.02653 3.1832266,1.992883 3.1765202,4.403391"
         sodipodi:ry="4.3869863"
         sodipodi:rx="3.2119007"
         sodipodi:cy="-25.959761"
         sodipodi:cx="-7.0766268"
         id="path3786-5-9-6-0"
         style="fill:#ffffff;fill-opacity:1;stroke:#e8c1a4;stroke-width:0.01;stroke-miterlimit:4;stroke-opacity:1;stroke-dasharray:none"
         sodipodi:type="arc" />
      <path
         transform="matrix(1.2263497,0.20225982,-0.20225982,1.2263497,20.437205,15.585255)"
         sodipodi:open="true"
         sodipodi:end="6.2869853"
         sodipodi:start="0.011008438"
         d="m -3.8649207,-25.911468 c -0.019527,2.422719 -1.4732871,4.365099 -3.2470634,4.338428 -1.7737763,-0.02667 -3.1958759,-2.012295 -3.1763489,-4.435014 0.01953,-2.422718 1.4732872,-4.365099 3.2470635,-4.338427 1.7647419,0.02653 3.1832266,1.992883 3.1765202,4.403391"
         sodipodi:ry="4.3869863"
         sodipodi:rx="3.2119007"
         sodipodi:cy="-25.959761"
         sodipodi:cx="-7.0766268"
         id="path3786-5-6-9"
         style="opacity:0.76543214;fill:#4d4d4d;fill-opacity:1;stroke:#e8c1a4;stroke-width:0.01;stroke-miterlimit:4;stroke-opacity:1;stroke-dasharray:none"
         sodipodi:type="arc" />
      <path
         transform="matrix(1.1717682,0.19325779,-0.19325779,1.1717682,20.27747,14.174846)"
         sodipodi:open="true"
         sodipodi:end="6.2869853"
         sodipodi:start="0.011008438"
         d="m -3.8649207,-25.911468 c -0.019527,2.422719 -1.4732871,4.365099 -3.2470634,4.338428 -1.7737763,-0.02667 -3.1958759,-2.012295 -3.1763489,-4.435014 0.01953,-2.422718 1.4732872,-4.365099 3.2470635,-4.338427 1.7647419,0.02653 3.1832266,1.992883 3.1765202,4.403391"
         sodipodi:ry="4.3869863"
         sodipodi:rx="3.2119007"
         sodipodi:cy="-25.959761"
         sodipodi:cx="-7.0766268"
         id="path3786-5-0"
         style="fill:#ffffff;fill-opacity:1;stroke:#e8c1a4;stroke-width:0.01;stroke-miterlimit:4;stroke-opacity:1;stroke-dasharray:none"
         sodipodi:type="arc" />
      <path
         transform="matrix(0.80047862,0.24842934,-0.24416351,0.89649238,17.402228,7.3797325)"
         sodipodi:open="true"
         sodipodi:end="6.2869853"
         sodipodi:start="0.011008438"
         d="m -3.8649207,-25.911468 c -0.019527,2.422719 -1.4732871,4.365099 -3.2470634,4.338428 -1.7737763,-0.02667 -3.1958759,-2.012295 -3.1763489,-4.435014 0.01953,-2.422718 1.4732872,-4.365099 3.2470635,-4.338427 1.7647419,0.02653 3.1832266,1.992883 3.1765202,4.403391"
         sodipodi:ry="4.3869863"
         sodipodi:rx="3.2119007"
         sodipodi:cy="-25.959761"
         sodipodi:cx="-7.0766268"
         id="path3786-5-9-1"
         style="fill:#9dc7cc;fill-opacity:1;stroke:#e8c1a4;stroke-width:0.01;stroke-miterlimit:4;stroke-opacity:1;stroke-dasharray:none"
         sodipodi:type="arc" />
      <path
         transform="matrix(0.58933577,0.09719818,-0.09719818,0.58933577,19.859641,-0.8494447)"
         sodipodi:open="true"
         sodipodi:end="6.2869853"
         sodipodi:start="0.011008438"
         d="m -3.8649207,-25.911468 c -0.019527,2.422719 -1.4732871,4.365099 -3.2470634,4.338428 -1.7737763,-0.02667 -3.1958759,-2.012295 -3.1763489,-4.435014 0.01953,-2.422718 1.4732872,-4.365099 3.2470635,-4.338427 1.7647419,0.02653 3.1832266,1.992883 3.1765202,4.403391"
         sodipodi:ry="4.3869863"
         sodipodi:rx="3.2119007"
         sodipodi:cy="-25.959761"
         sodipodi:cx="-7.0766268"
         id="path3786-5-9-6-1"
         style="fill:#000000;fill-opacity:1;stroke:#e8c1a4;stroke-width:0.01;stroke-miterlimit:4;stroke-opacity:1;stroke-dasharray:none"
         sodipodi:type="arc" />
      <path
         transform="matrix(0.26616607,0.11978334,-0.11978334,0.26616607,16.458483,-10.19371)"
         sodipodi:open="true"
         sodipodi:end="6.2869853"
         sodipodi:start="0.011008438"
         d="m -3.8649207,-25.911468 c -0.019527,2.422719 -1.4732871,4.365099 -3.2470634,4.338428 -1.7737763,-0.02667 -3.1958759,-2.012295 -3.1763489,-4.435014 0.01953,-2.422718 1.4732872,-4.365099 3.2470635,-4.338427 1.7647419,0.02653 3.1832266,1.992883 3.1765202,4.403391"
         sodipodi:ry="4.3869863"
         sodipodi:rx="3.2119007"
         sodipodi:cy="-25.959761"
         sodipodi:cx="-7.0766268"
         id="path3786-5-9-6-0-5"
         style="fill:#ffffff;fill-opacity:1;stroke:#e8c1a4;stroke-width:0.01;stroke-miterlimit:4;stroke-opacity:1;stroke-dasharray:none"
         sodipodi:type="arc" />
      <path
         sodipodi:nodetypes="scss"
         inkscape:connector-curvature="0"
         id="path2987-7-4"
         d="m 17.510819,-24.25 c -1.292687,-0.835398 -1.266292,-0.97149 0.190983,-0.984687 0.930041,-0.0084 1.969098,0.434687 2.309017,0.984687 0.782182,1.265598 -0.541628,1.265598 -2.5,0 z"
         style="fill:#666666;fill-opacity:1" />
      <path
         sodipodi:nodetypes="sscss"
         inkscape:connector-curvature="0"
         id="path4000"
         d="M 9.9118022,0.74084714 C 11.125306,1.4264672 15.698358,2.9390306 15.175476,4.1444163 14.879489,4.8267473 14.680336,5.3805044 13.75157,5.8298859 13.017195,5.2361359 8.5422369,3.0070471 8.8174017,1.65579 8.9105012,1.1986044 9.531437,0.52594388 9.9118022,0.74084714 z"
         style="fill:#fad7c2;fill-opacity:1;stroke:#e4b69b;stroke-width:0.40000001;stroke-linecap:butt;stroke-linejoin:miter;stroke-miterlimit:4;stroke-opacity:1;stroke-dasharray:none" />
      <path
         sodipodi:nodetypes="sscss"
         inkscape:connector-curvature="0"
         id="path4000-8"
         d="M 8.6509722,2.2253842 C 9.864476,2.9110043 14.625028,4.5173177 14.102146,5.7227034 13.806159,6.4050344 13.607006,6.9587915 12.67824,7.408173 11.943865,6.814423 7.2814069,4.8040842 7.5565717,3.4528271 7.6496712,2.9956415 8.270607,2.010481 8.6509722,2.2253842 z"
         style="fill:#fad7c2;fill-opacity:1;stroke:#e4b69b;stroke-width:0.40000001;stroke-linecap:butt;stroke-linejoin:miter;stroke-miterlimit:4;stroke-opacity:1;stroke-dasharray:none" />
      <path
         sodipodi:nodetypes="sscss"
         inkscape:connector-curvature="0"
         id="path4000-1"
         d="M 7.6509722,4.2253842 C 8.864476,4.9110043 13.562528,6.4235677 13.039646,7.6289534 12.743659,8.3112844 13.263256,8.6775415 12.33449,9.126923 11.600115,8.533173 6.4376569,6.4915842 6.7128217,5.1403271 6.8059212,4.6831415 7.270607,4.010481 7.6509722,4.2253842 z"
         style="fill:#fad7c2;fill-opacity:1;stroke:#e4b69b;stroke-width:0.40000001;stroke-linecap:butt;stroke-linejoin:miter;stroke-miterlimit:4;stroke-opacity:1;stroke-dasharray:none" />
      <path
         sodipodi:nodetypes="sscss"
         inkscape:connector-curvature="0"
         id="path4000-7"
         d="M 30.868124,8.1928921 C 30.538182,6.8387118 28.513428,0.46824 29.750369,0.0251399 c 0.700193,-0.2508251 1.334111,-0.9843379 2.297216,-0.6142351 0.06922,0.9418355 1.304992,8.0727278 0.13109,8.7963064 -0.397178,0.2448162 -1.207131,0.4101401 -1.310551,-0.014319 z"
         style="fill:#fad7c2;fill-opacity:1;stroke:#e4b69b;stroke-width:0.40000001;stroke-linecap:butt;stroke-linejoin:miter;stroke-miterlimit:4;stroke-opacity:1;stroke-dasharray:none" />
      <path
         sodipodi:nodetypes="sscss"
         inkscape:connector-curvature="0"
         id="path4000-7-6"
         d="m 32.48774,8.3473345 c -0.08257,-1.3913475 -1.060982,-9.4586458 0.235242,-9.6735047 0.733751,-0.1216251 1.83821,-0.2548215 2.188397,0.2814768 -0.100249,0.93903929 0.14758,9.1382898 -1.136755,9.6403788 -0.434542,0.169877 -1.261002,0.1877583 -1.286884,-0.2483509 z"
         style="fill:#fad7c2;fill-opacity:1;stroke:#e4b69b;stroke-width:0.40000001;stroke-linecap:butt;stroke-linejoin:miter;stroke-miterlimit:4;stroke-opacity:1;stroke-dasharray:none" />
      <path
         sodipodi:nodetypes="sscss"
         inkscape:connector-curvature="0"
         id="path4000-7-9"
         d="m 35.866563,9.1635816 c 0.232638,-1.3742437 0.89295,-8.0260506 2.204279,-7.9437216 0.742301,0.0466 0.61203,0.79581 0.756435,1.3916942 -0.308981,1.2986489 -1.27334,7.1958761 -2.637718,7.3960848 -0.461624,0.06774 -0.395912,-0.4133049 -0.322996,-0.8440574 z"
         style="fill:#fad7c2;fill-opacity:1;stroke:#e4b69b;stroke-width:0.40000001;stroke-linecap:butt;stroke-linejoin:miter;stroke-miterlimit:4;stroke-opacity:1;stroke-dasharray:none" />
      <path
         sodipodi:nodetypes="sscss"
         inkscape:connector-curvature="0"
         id="path4000-7-61"
         d="m 34.249433,8.7985211 c 0.08419,-1.3912505 -0.0026,-9.5755199 1.310025,-9.6340356 0.743026,-0.033124 1.671789,0.99684 1.982869,1.4158185 -0.211679,0.9203464 -0.741023,8.7733717 -2.07613,9.1184808 -0.45172,0.116765 -1.243151,-0.464184 -1.216764,-0.9002637 z"
         style="fill:#fad7c2;fill-opacity:1;stroke:#e4b69b;stroke-width:0.40000001;stroke-linecap:butt;stroke-linejoin:miter;stroke-miterlimit:4;stroke-opacity:1;stroke-dasharray:none" />
      <path
         sodipodi:nodetypes="sscss"
         inkscape:connector-curvature="0"
         id="path4000-0"
         d="m 49.464365,15.343847 c -0.168304,1.383597 0.436866,4.93719 -0.876875,4.916093 -0.743668,-0.01194 -0.89397,-0.04621 -1.664934,-0.731894 -0.07671,-0.687085 -0.07621,-4.580877 1.277351,-4.844485 0.457964,-0.08919 1.317213,0.226606 1.264458,0.660286 z"
         style="fill:#fad7c2;fill-opacity:1;stroke:#e4b69b;stroke-width:0.40000001;stroke-linecap:butt;stroke-linejoin:miter;stroke-miterlimit:4;stroke-opacity:1;stroke-dasharray:none" />
      <path
         inkscape:transform-center-y="-1.2948879"
         inkscape:transform-center-x="2.3814617"
         sodipodi:nodetypes="sscss"
         inkscape:connector-curvature="0"
         id="path4000-0-7"
         d="m 51.46716,15.22386 c 0.01888,1.393667 1.095417,4.833917 -0.209274,4.989296 -0.738545,0.08796 -1.317243,0.194807 -2.173243,-0.381223 0.143071,-0.933475 -0.265053,-4.649862 1.040893,-5.092715 0.441854,-0.149836 1.335708,0.04781 1.341624,0.484642 z"
         style="fill:#fad7c2;fill-opacity:1;stroke:#e4b69b;stroke-width:0.40000001;stroke-linecap:butt;stroke-linejoin:miter;stroke-miterlimit:4;stroke-opacity:1;stroke-dasharray:none" />
      <path
         sodipodi:nodetypes="sscss"
         inkscape:connector-curvature="0"
         id="path4000-0-2"
         d="m 52.884755,15.257468 c 0.144281,1.386307 1.526193,4.715657 0.240791,4.987875 -0.727625,0.154096 -0.669353,0.312615 -1.57374,-0.184005 0.05844,-0.942566 -0.68263,-4.607113 0.578139,-5.165749 0.426569,-0.18901 0.709587,-0.07265 0.75481,0.361879 z"
         style="fill:#fad7c2;fill-opacity:1;stroke:#e4b69b;stroke-width:0.40000001;stroke-linecap:butt;stroke-linejoin:miter;stroke-miterlimit:4;stroke-opacity:1;stroke-dasharray:none" />
    </g>
  </g>
</svg>
